<?xml version="1.0" encoding="UTF-8"?><svg id="Calque_2" xmlns="http://www.w3.org/2000/svg" viewBox="0 0 119.3 27.94"><defs><style>.cls-1{fill:#fd6c43;stroke-width:0px;}</style></defs><g id="Calque_1-2"><path class="cls-1" d="m53.4,13c-1.2,0-2.3-.29-3.29-.87-.99-.57-1.77-1.36-2.34-2.35-.57-.99-.85-2.08-.85-3.27s.28-2.28.85-3.27c.57-.99,1.35-1.77,2.34-2.34.99-.57,2.08-.86,3.29-.86.75,0,1.46.12,2.13.34.67.23,1.28.55,1.83.97.1.07.15.15.15.24,0,.09-.03.17-.1.26l-.97,1.28c-.14.18-.31.2-.5.06-.38-.26-.78-.47-1.21-.62-.43-.15-.88-.22-1.33-.22-.72,0-1.39.18-2.01.55-.62.37-1.11.87-1.47,1.5-.37.64-.55,1.34-.55,2.11s.18,1.47.55,2.11c.37.64.86,1.14,1.47,1.51.62.37,1.29.55,2.01.55.48,0,.92-.07,1.33-.21.41-.14.81-.36,1.22-.67.1-.07.19-.09.27-.08.08.01.16.06.23.15l.96,1.28c.06.1.1.18.1.26,0,.08-.05.15-.13.22-.56.43-1.17.76-1.85,1-.67.24-1.39.36-2.14.36Z"/><path class="cls-1" d="m67.37,12.99c-1.2,0-2.3-.29-3.29-.86-.99-.58-1.77-1.36-2.34-2.36-.57-.99-.85-2.08-.85-3.27s.28-2.28.85-3.27,1.35-1.77,2.34-2.34c.99-.57,2.08-.86,3.29-.86s2.29.29,3.28.86c.99.58,1.77,1.35,2.35,2.34.58.99.86,2.08.86,3.27s-.29,2.28-.86,3.27c-.57.99-1.35,1.78-2.35,2.36-.99.58-2.08.86-3.28.86Zm0-2.32c.72,0,1.39-.19,2.01-.55.61-.37,1.1-.87,1.47-1.51.37-.64.55-1.34.55-2.11s-.18-1.48-.55-2.11c-.36-.63-.86-1.14-1.47-1.5s-1.29-.55-2-.55-1.39.18-2.01.55c-.62.37-1.11.87-1.47,1.5-.37.64-.55,1.34-.55,2.11s.18,1.47.55,2.11c.37.64.86,1.14,1.47,1.51.62.37,1.29.55,2.01.55Z"/><path class="cls-1" d="m100.96,12.99c-1.2,0-2.3-.29-3.29-.86-.99-.58-1.77-1.36-2.34-2.36-.57-.99-.85-2.08-.85-3.27s.28-2.28.85-3.27,1.35-1.77,2.34-2.34c.99-.57,2.08-.86,3.29-.86.75,0,1.46.11,2.13.34.67.23,1.28.55,1.83.97.1.07.14.15.15.24,0,.08-.03.17-.1.26l-.97,1.29c-.14.18-.31.2-.5.06-.38-.26-.78-.47-1.21-.62-.43-.15-.88-.22-1.33-.22-.72,0-1.39.18-2,.55-.62.37-1.11.87-1.48,1.5-.36.64-.55,1.34-.55,2.11s.18,1.47.55,2.1c.37.64.86,1.14,1.48,1.51.62.37,1.29.55,2,.55.48,0,.92-.07,1.33-.21.41-.14.81-.36,1.22-.67.1-.07.19-.09.27-.08.08.01.17.06.24.15l.96,1.29c.07.1.1.18.1.26,0,.08-.05.15-.13.22-.56.43-1.18.76-1.85,1-.67.24-1.38.36-2.13.36Z"/><path class="cls-1" d="m33.59,12.99h-1.93c-.14,0-.25-.11-.25-.25V.55c0-.49.59-.73.94-.39l7.82,7.82V.26c0-.13.11-.25.25-.25h1.92c.13,0,.25.11.25.25v12.15c0,.52-.62.78-.99.41l-7.76-7.76v7.68c0,.14-.11.24-.24.24Z"/><path class="cls-1" d="m2.17,12.99H.25c-.14,0-.25-.11-.25-.25V.55C0,.06.59-.18.93.16l7.82,7.82V.26c0-.13.11-.25.25-.25h1.92c.14,0,.25.11.25.25v12.16c0,.52-.62.77-.99.41L2.42,5.06v7.68c0,.14-.11.24-.25.24Z"/><path class="cls-1" d="m20.36.59l-5.01,12.06c-.07.16.05.34.23.34h2.09c.1,0,.19-.06.23-.15l.49-1.18h5.69l.49,1.18c.04.09.13.15.23.15h2.08c.17,0,.3-.18.23-.34L22.11.59c-.32-.78-1.43-.78-1.75,0Zm-.97,8.64l1.85-4.44,1.84,4.44h-3.69Z"/><path class="cls-1" d="m77.3,12.99h1.94c.12,0,.23-.09.24-.22l.63-6.02,3.46,5.93c.24.41.82.41,1.06,0l3.46-5.93.62,6.02c.01.12.12.22.24.22h1.94c.15,0,.26-.13.25-.27l-1.27-12.35c-.04-.39-.56-.5-.75-.16l-5.01,8.58L79.1.21c-.2-.34-.71-.23-.75.16l-1.29,12.35c-.01.14.1.27.25.27Z"/><path class="cls-1" d="m116.61.14l-2.87,4.97-2.87-4.97c-.04-.08-.12-.12-.21-.12h-2.22c-.19,0-.31.21-.21.37l4.32,7.48v4.88c0,.14.11.25.25.25h1.92c.14,0,.25-.11.25-.25v-4.92l4.29-7.44c.1-.16-.02-.37-.21-.37h-2.22c-.09,0-.18.05-.22.12Z"/><path class="cls-1" d="m35.07,27.77l1.93-9.26h-3.43l.25-1.19h8.23l-.25,1.19h-3.4l-1.93,9.26h-1.4Z"/><path class="cls-1" d="m42.91,23.39c0-1.86.54-3.37,1.62-4.52s2.38-1.73,3.92-1.73c1.3,0,2.36.42,3.18,1.27s1.23,1.99,1.23,3.41c0,1.02-.21,1.96-.62,2.83-.31.65-.7,1.21-1.17,1.69s-.97.84-1.51,1.09c-.71.34-1.47.51-2.27.51s-1.6-.2-2.29-.6-1.21-.96-1.56-1.67-.53-1.48-.53-2.29Zm1.38.07c0,.61.13,1.18.38,1.69s.63.92,1.14,1.21,1.03.43,1.59.43,1.05-.13,1.53-.38.92-.61,1.3-1.06.68-1.01.91-1.68.33-1.32.33-1.96c0-1.04-.29-1.87-.87-2.49s-1.3-.93-2.16-.93c-1.09,0-2.06.47-2.9,1.4s-1.25,2.19-1.25,3.76Z"/><path class="cls-1" d="m55.44,23.39c0-1.86.54-3.37,1.62-4.52s2.38-1.73,3.92-1.73c1.3,0,2.36.42,3.18,1.27s1.23,1.99,1.23,3.41c0,1.02-.21,1.96-.62,2.83-.31.65-.7,1.21-1.17,1.69s-.97.84-1.51,1.09c-.71.34-1.47.51-2.27.51s-1.6-.2-2.29-.6-1.21-.96-1.56-1.67-.53-1.48-.53-2.29Zm1.38.07c0,.61.13,1.18.38,1.69s.63.92,1.14,1.21,1.03.43,1.59.43,1.05-.13,1.53-.38.92-.61,1.3-1.06.68-1.01.91-1.68.33-1.32.33-1.96c0-1.04-.29-1.87-.87-2.49s-1.3-.93-2.16-.93c-1.09,0-2.06.47-2.9,1.4s-1.25,2.19-1.25,3.76Z"/><path class="cls-1" d="m67.22,27.77l2.18-10.45h1.4l-1.93,9.27h5.43l-.25,1.18h-6.82Z"/><path class="cls-1" d="m76.95,24.39l1.37-.13v.36c-.01.4.08.77.26,1.11s.49.59.92.78.94.27,1.53.27c.84,0,1.47-.18,1.91-.55s.66-.78.66-1.25c0-.33-.12-.63-.35-.9-.24-.27-.89-.63-1.95-1.08-.82-.36-1.38-.63-1.68-.82-.47-.31-.82-.65-1.04-1.01s-.34-.78-.34-1.24c0-.54.15-1.02.44-1.45s.73-.76,1.29-.99,1.21-.34,1.92-.34c.85,0,1.57.14,2.15.43s1.01.67,1.27,1.14.4.93.4,1.36c0,.04,0,.11,0,.21l-1.35.11c0-.29-.03-.53-.08-.69-.1-.29-.24-.53-.44-.73s-.47-.36-.82-.48-.74-.18-1.17-.18c-.76,0-1.35.17-1.78.51-.32.26-.48.61-.48,1.04,0,.26.07.49.2.69s.37.4.72.6c.25.14.83.41,1.76.82.75.33,1.27.59,1.55.78.38.25.67.56.88.92s.31.77.31,1.22c0,.57-.17,1.09-.52,1.57s-.82.85-1.43,1.11-1.3.39-2.09.39c-1.18,0-2.15-.26-2.9-.77s-1.13-1.44-1.13-2.78Z"/></g></svg>